<svg xmlns="http://www.w3.org/2000/svg" xmlns:xlink="http://www.w3.org/1999/xlink" viewBox="0 0 50 50" fill="#5B5B5B">
  <path d="M37.09375 0.09375C36.316406 0.167969 35.652344 0.691406 35.398438 1.429688C35.140625 2.171875 35.339844 2.992188 35.90625 3.53125L42.375 10L2 10C1.9375 9.996094 1.875 9.996094 1.8125 10C0.707031 10.050781 -0.144531 10.988281 -0.09375 12.09375C-0.0429688 13.199219 0.894531 14.050781 2 14L42.375 14L35.90625 20.46875C35.382813 20.96875 35.167969 21.710938 35.347656 22.414063C35.527344 23.113281 36.070313 23.664063 36.769531 23.851563C37.46875 24.039063 38.214844 23.832031 38.71875 23.3125L50.03125 12L38.71875 0.6875C38.296875 0.253906 37.699219 0.0351563 37.09375 0.09375 Z M 12.5 26.09375C12.046875 26.152344 11.628906 26.359375 11.3125 26.6875L0 38L11.3125 49.3125C11.816406 49.832031 12.5625 50.039063 13.261719 49.851563C13.960938 49.664063 14.503906 49.113281 14.683594 48.414063C14.863281 47.710938 14.648438 46.96875 14.125 46.46875L7.65625 40L48 40C48.722656 40.011719 49.390625 39.632813 49.753906 39.007813C50.121094 38.386719 50.121094 37.613281 49.753906 36.992188C49.390625 36.367188 48.722656 35.988281 48 36L7.65625 36L14.125 29.53125C14.753906 28.9375 14.929688 28.003906 14.558594 27.222656C14.1875 26.441406 13.359375 25.984375 12.5 26.09375Z" fill="#5B5B5B" />
</svg>